<?xml version="1.0" encoding="utf-8"?>
<!-- Generator: Adobe Illustrator 22.1.0, SVG Export Plug-In . SVG Version: 6.00 Build 0)  -->
<svg version="1.1" id="Layer_1" xmlns="http://www.w3.org/2000/svg" xmlns:xlink="http://www.w3.org/1999/xlink" x="0px" y="0px"
	 viewBox="0 0 64 64" style="enable-background:new 0 0 64 64;" xml:space="preserve">
<style type="text/css">
	.st0{fill:#FCBB47;}
	.st1{fill:#FFFFFF;}
	.st2{fill:#AEB57E;}
	.st3{fill:#50B0A5;}
</style>
<g>
	<rect x="1.3" y="22.9" class="st0" width="58.3" height="10.4"/>
	<path class="st1" d="M60.1,33.8H0.8V22.4h59.3V33.8z M1.8,32.8h57.3v-9.4H1.8V32.8z"/>
</g>
<g>
	<rect x="1.3" y="11.4" class="st0" width="13.5" height="11.5"/>
	<path class="st1" d="M14.7,23.4h-14V10.9h14V23.4z M1.8,22.4h12.9V11.9H1.8V22.4z"/>
</g>
<g>
	<rect x="46.7" y="11.4" class="st0" width="16" height="11.5"/>
	<path class="st1" d="M63.2,23.4H46.7V10.9h16.5V23.4z M46.7,22.4h15.4V11.9H46.7V22.4z"/>
</g>
<g>
	<rect x="1.3" y="1" class="st0" width="61.4" height="10.4"/>
	<path class="st1" d="M63.2,11.9H0.8V0.5h62.4V11.9z M1.8,10.9h60.4V1.5H1.8V10.9z"/>
</g>
<g>
	<rect x="0.8" y="32.8" class="st2" width="14.6" height="10.4"/>
	<path class="st1" d="M14.3,33.8v8.4H1.8v-8.4H14.3 M15.3,32.8H0.8v10.4h14.6V32.8L15.3,32.8z"/>
</g>
<g>
	<rect x="0.8" y="43.2" class="st3" width="9.4" height="10.4"/>
	<path class="st1" d="M9.1,44.2v8.4H1.8v-8.4H9.1 M10.1,43.2H0.8v10.4h9.4V43.2L10.1,43.2z"/>
</g>
<g>
	<rect x="0.8" y="53.6" class="st3" width="9.4" height="10.4"/>
	<path class="st1" d="M9.1,54.6V63H1.8v-8.4H9.1 M10.1,53.6H0.8V64h9.4V53.6L10.1,53.6z"/>
</g>
</svg>
