<svg id="Layer_1" data-name="Layer 1" xmlns="http://www.w3.org/2000/svg" xmlns:xlink="http://www.w3.org/1999/xlink" viewBox="0 0 338 136"><defs><style>.cls-1{fill:url(#linear-gradient);}.cls-2{fill:#fff;}.cls-3{fill:#a3a3a3;}.cls-4{font-size:47.55px;fill:#808184;}.cls-4,.cls-7{font-family:Roboto-Light, Roboto;}.cls-5{fill:url(#linear-gradient-2);}.cls-6,.cls-7{fill:#777;}.cls-7{font-size:29.14px;}</style><linearGradient id="linear-gradient" x1="267.5" y1="132.04" x2="267.5" y2="3.23" gradientUnits="userSpaceOnUse"><stop offset="0" stop-color="#f8f8f8"/><stop offset="1" stop-color="#f5f5f5"/></linearGradient><linearGradient id="linear-gradient-2" x1="89.5" y1="132.04" x2="89.5" y2="3.23" xlink:href="#linear-gradient"/></defs><title>macOS</title><rect class="cls-1" x="200.5" y="3.5" width="134" height="129" rx="12.66" ry="12.66"/><path class="cls-2" d="M321.84,4A12.17,12.17,0,0,1,334,16.16V119.84A12.17,12.17,0,0,1,321.84,132H213.16A12.17,12.17,0,0,1,201,119.84V16.16A12.17,12.17,0,0,1,213.16,4H321.84m0-1H213.16A13.16,13.16,0,0,0,200,16.16V119.84A13.16,13.16,0,0,0,213.16,133H321.84A13.16,13.16,0,0,0,335,119.84V16.16A13.16,13.16,0,0,0,321.84,3Z"/><path class="cls-3" d="M322,3a13,13,0,0,1,13,13V120a13,13,0,0,1-13,13H213a13,13,0,0,1-13-13V16A13,13,0,0,1,213,3H322m0-3H213a16,16,0,0,0-16,16V120a16,16,0,0,0,16,16H322a16,16,0,0,0,16-16V16A16,16,0,0,0,322,0Z"/><path class="cls-3" d="M163,3a13,13,0,0,1,13,13V120a13,13,0,0,1-13,13H16A13,13,0,0,1,3,120V16A13,13,0,0,1,16,3H163m0-3H16A16,16,0,0,0,0,16V120a16,16,0,0,0,16,16H163a16,16,0,0,0,16-16V16A16,16,0,0,0,163,0Z"/><text class="cls-4" transform="translate(252.82 84.8)">V</text><rect class="cls-5" x="3.5" y="3.5" width="172" height="129" rx="12.66" ry="12.66"/><path class="cls-2" d="M162.84,4A12.17,12.17,0,0,1,175,16.16V119.84A12.17,12.17,0,0,1,162.84,132H16.16A12.17,12.17,0,0,1,4,119.84V16.16A12.17,12.17,0,0,1,16.16,4H162.84m0-1H16.16A13.16,13.16,0,0,0,3,16.16V119.84A13.16,13.16,0,0,0,16.16,133H162.84A13.16,13.16,0,0,0,176,119.84V16.16A13.16,13.16,0,0,0,162.84,3Z"/><g id="layer1"><g id="text2396"><path class="cls-6" d="M132.68,22a5.21,5.21,0,0,0-5.21,5.2,5.22,5.22,0,0,0,5.21,5.2h3.77v7.53h-3.77a5.21,5.21,0,0,0,0,10.41,5.24,5.24,0,0,0,5.2-5.21V41.36h7.52v3.77a5.21,5.21,0,1,0,8.88-3.67,5,5,0,0,0-3.67-1.53h-3.75V32.4h3.75a5.17,5.17,0,0,0,5.2-5.2,5.21,5.21,0,0,0-10.41,0V31h-7.52V27.2a5.21,5.21,0,0,0-5.2-5.2Zm0,1.44a3.62,3.62,0,0,1,2.65,1.1,3.68,3.68,0,0,1,1.12,2.66V31h-3.77a3.7,3.7,0,0,1-2.66-1.1,3.64,3.64,0,0,1-1.12-2.65,3.72,3.72,0,0,1,3.78-3.76Zm17.93,0a3.68,3.68,0,0,1,2.67,1.08,3.72,3.72,0,0,1,1.1,2.68,3.64,3.64,0,0,1-1.12,2.65,3.68,3.68,0,0,1-2.65,1.1h-3.75V27.2A3.69,3.69,0,0,1,148,24.54,3.65,3.65,0,0,1,150.61,23.44Zm-12.73,9h7.52v7.53h-7.52V32.4Zm-5.2,9h3.77v3.9l0,0a3.8,3.8,0,0,1-3.74,3.61A3.74,3.74,0,0,1,130,47.78a3.7,3.7,0,0,1,0-5.3A3.73,3.73,0,0,1,132.68,41.36Zm14.18,0h3.75a3.65,3.65,0,0,1,2.67,1.12,3.75,3.75,0,1,1-6.42,2.65V41.36Z"/></g></g><text class="cls-7" transform="translate(27.21 111.95)">command</text></svg>