<svg id="Layer_1" data-name="Layer 1" xmlns="http://www.w3.org/2000/svg" xmlns:xlink="http://www.w3.org/1999/xlink" viewBox="0 0 338 136"><defs><style>.cls-1{fill:url(#linear-gradient);}.cls-2{fill:#fff;}.cls-3{fill:#a3a3a3;}.cls-4{font-size:47.55px;fill:#808184;}.cls-4,.cls-6{font-family:Roboto-Light, Roboto;}.cls-5{fill:url(#linear-gradient-2);}.cls-6{font-size:35.02px;fill:#777;}</style><linearGradient id="linear-gradient" x1="267.5" y1="132.04" x2="267.5" y2="3.23" gradientUnits="userSpaceOnUse"><stop offset="0" stop-color="#f8f8f8"/><stop offset="1" stop-color="#f5f5f5"/></linearGradient><linearGradient id="linear-gradient-2" x1="89.5" y1="132.04" x2="89.5" y2="3.23" xlink:href="#linear-gradient"/></defs><title>Windows</title><rect class="cls-1" x="200.5" y="3.5" width="134" height="129" rx="12.66" ry="12.66"/><path class="cls-2" d="M321.84,4A12.17,12.17,0,0,1,334,16.16V119.84A12.17,12.17,0,0,1,321.84,132H213.16A12.17,12.17,0,0,1,201,119.84V16.16A12.17,12.17,0,0,1,213.16,4H321.84m0-1H213.16A13.16,13.16,0,0,0,200,16.16V119.84A13.16,13.16,0,0,0,213.16,133H321.84A13.16,13.16,0,0,0,335,119.84V16.16A13.16,13.16,0,0,0,321.84,3Z"/><path class="cls-3" d="M322,3a13,13,0,0,1,13,13V120a13,13,0,0,1-13,13H213a13,13,0,0,1-13-13V16A13,13,0,0,1,213,3H322m0-3H213a16,16,0,0,0-16,16V120a16,16,0,0,0,16,16H322a16,16,0,0,0,16-16V16A16,16,0,0,0,322,0Z"/><path class="cls-3" d="M163,3a13,13,0,0,1,13,13V120a13,13,0,0,1-13,13H16A13,13,0,0,1,3,120V16A13,13,0,0,1,16,3H163m0-3H16A16,16,0,0,0,0,16V120a16,16,0,0,0,16,16H163a16,16,0,0,0,16-16V16A16,16,0,0,0,163,0Z"/><text class="cls-4" transform="translate(252.82 84.8)">V</text><rect class="cls-5" x="3.5" y="3.5" width="172" height="129" rx="12.66" ry="12.66"/><path class="cls-2" d="M162.84,4A12.17,12.17,0,0,1,175,16.16V119.84A12.17,12.17,0,0,1,162.84,132H16.16A12.17,12.17,0,0,1,4,119.84V16.16A12.17,12.17,0,0,1,16.16,4H162.84m0-1H16.16A13.16,13.16,0,0,0,3,16.16V119.84A13.16,13.16,0,0,0,16.16,133H162.84A13.16,13.16,0,0,0,176,119.84V16.16A13.16,13.16,0,0,0,162.84,3Z"/><text class="cls-6" transform="translate(23.38 80.67)">Ctrl</text></svg>